<?xml version="1.0" encoding="utf-8"?>
<!DOCTYPE svg PUBLIC "-//W3C//DTD SVG 1.1//EN" "http://www.w3.org/Graphics/SVG/1.1/DTD/svg11.dtd">
<svg style="width:308px;height:308px;" version="1.1" id="图形" xmlns="http://www.w3.org/2000/svg" xmlns:xlink="http://www.w3.org/1999/xlink" x="0px" y="0px" width="1024px" height="1024px" viewBox="0 0 1024 1024" enable-background="new 0 0 1024 1024" xml:space="preserve">
  <path class="svgpath" data-index="path_0" fill="#eb4f38" d="M511.450485 64.113203c-247.235894 0-447.660646 200.424752-447.660646 447.660646S264.214591 959.434495 511.450485 959.434495s447.660646-200.424752 447.660646-447.660646S758.687402 64.113203 511.450485 64.113203zM760.990864 506.750439l0 10.045797 0 3.730974-0.134053 0c-1.922792 29.861098-26.738991 53.489238-57.08616 53.489238l-69.719898 0-60.356646 0 0 130.075521 0 57.220213-57.221236 0-10.045797 0-3.729951 0 0-0.134053c-29.861098-1.923816-53.489238-26.738991-53.489238-57.08616l0-69.718875 0-60.356646L319.132364 574.016449l-57.221236 0 0-57.221236 0-10.045797 0-3.729951 0.134053 0c1.923816-29.861098 26.738991-53.489238 57.087183-53.489238l69.717851 0 60.356646 0L449.206862 319.454706l0-57.220213 57.220213 0 10.045797 0 3.730974 0 0 0.134053c29.861098 1.923816 53.489238 26.738991 53.489238 57.08616l0 69.719898 0 60.356646 130.076544 0 57.220213 0L760.989841 506.750439z" />

</svg>
